<?xml version="1.0" encoding="UTF-8"?>
<svg version="1.1" xmlns="http://www.w3.org/2000/svg" width="512" height="512">
<path d="M0 0 C0.85006622 0.00021149 1.70013245 0.00042297 2.57595825 0.00064087 C27.04801105 0.06115633 49.66243519 4.17106005 72 14.375 C73.10859375 14.87644531 74.2171875 15.37789062 75.359375 15.89453125 C90.60665472 23.12851841 103.24491117 33.31056673 115 45.375 C115.59167969 45.9215625 116.18335938 46.468125 116.79296875 47.03125 C132.0806201 61.46137352 137.08360043 78.92482008 138 99.375 C139.3355016 166.76441085 109.98789404 236.08798758 77 293.375 C80.54186997 292.89732837 84.08345785 292.41759556 87.625 291.9375 C88.62402344 291.80279297 89.62304688 291.66808594 90.65234375 291.52929688 C96.49932211 290.73559388 96.49932211 290.73559388 102.32421875 289.796875 C113.07476375 288.10189856 122.69990975 289.3536658 131.9375 295.25 C137.4942987 300.97518654 140.04118919 306.71368388 140.375 314.625 C140.08984007 325.7312289 134.59635536 333.59587519 127 341.375 C114.63155536 352.30734077 99.86735257 360.0397514 84 364.375 C82.93007813 364.67019531 81.86015625 364.96539062 80.7578125 365.26953125 C73.32170362 367.07951938 65.85960016 367.91417982 58.25 368.625 C57.29158203 368.71740967 56.33316406 368.80981934 55.34570312 368.9050293 C49.09708259 369.42520863 43.21151742 369.2246408 37 368.375 C36.95512451 369.27927734 36.91024902 370.18355469 36.86401367 371.11523438 C32.34546557 459.93312128 32.34546557 459.93312128 4 488.375 C3.32453125 489.07367188 2.6490625 489.77234375 1.953125 490.4921875 C-8.04653269 500.1535109 -20.87361849 505.35341525 -34.11376953 508.87109375 C-35.84295138 509.33304448 -37.56093445 509.8363966 -39.27734375 510.34375 C-56.77323492 514.92449242 -76.39808838 514.48892937 -92.3125 505.5625 C-93.89442607 504.52914507 -95.45830865 503.46747439 -97 502.375 C-97.68578125 501.89675781 -98.3715625 501.41851562 -99.078125 500.92578125 C-117.22849873 486.74133563 -123.61330827 458.67939988 -126.28988647 437.00350952 C-127.18941409 429.32576722 -127.62307961 421.62737723 -128.00537109 413.90917969 C-128.12595663 411.48073463 -128.25567833 409.0529013 -128.38671875 406.625 C-128.79517241 398.86675177 -129.10990499 391.146853 -129 383.375 C-129.78761719 383.64054687 -130.57523438 383.90609375 -131.38671875 384.1796875 C-154.23644888 391.5889491 -179.9960038 392.03122102 -202 381.375 C-204.78203354 379.85040877 -207.40063106 378.19043228 -210 376.375 C-211.1657805 375.60282711 -212.33237748 374.83188468 -213.5 374.0625 C-214.7375 373.2271875 -214.7375 373.2271875 -216 372.375 C-216.6290625 372.77332031 -217.258125 373.17164063 -217.90625 373.58203125 C-229.99772258 381.06636141 -241.03953856 384.26561573 -255.3515625 381.796875 C-277.51913666 375.86394761 -290.85190347 356.80071434 -301.82202148 338.00366211 C-331.07387679 286.33363625 -344.41423309 224.04239456 -354.6875 166.1328125 C-354.80684402 165.46362289 -354.92618805 164.79443329 -355.04914856 164.10496521 C-356.38527304 156.44014154 -357.16166235 149.05822575 -357.203125 141.29296875 C-357.20882507 140.43931229 -357.21452515 139.58565582 -357.22039795 138.70613098 C-357.22979683 136.90346493 -357.23636145 135.1007821 -357.24023438 133.2980957 C-357.2498379 130.60790853 -357.28086742 127.91852079 -357.3125 125.22851562 C-357.406156 110.02726546 -355.94384986 94.96434847 -351.4375 80.375 C-351.18919434 79.56305176 -350.94088867 78.75110352 -350.68505859 77.91455078 C-346.31562915 64.45317725 -339.45065306 51.92138095 -330 41.375 C-329.22785156 40.40820312 -328.45570313 39.44140625 -327.66015625 38.4453125 C-311.18972176 18.66896203 -283.33917385 9.45032011 -258.5859375 7.04296875 C-229.41112985 4.65940603 -201.03732279 9.40645124 -172.94140625 17.0078125 C-172.08764404 17.23621826 -171.23388184 17.46462402 -170.35424805 17.69995117 C-168 18.375 -168 18.375 -166.01489258 19.10668945 C-162.66732786 20.31413636 -161.21105948 20.4519137 -157.81640625 19.21484375 C-156.74261719 18.58707031 -155.66882813 17.95929687 -154.5625 17.3125 C-128.67429432 3.18153535 -97.79486334 3.45206594 -69.2421875 6.9375 C-60.08323643 7.95493192 -52.6973076 6.56295734 -43.8359375 4.328125 C-29.28885135 0.80532636 -14.89943616 -0.03444177 0 0 Z " fill="#FBFBFC" transform="translate(365,-0.375)"/>
<path d="M0 0 C20.00030681 16.83479063 39.25423614 39.6702138 47.625 64.875 C47.625 66.195 47.625 67.515 47.625 68.875 C46.96081055 68.88958252 46.29662109 68.90416504 45.61230469 68.91918945 C28.32202107 68.99379941 28.32202107 68.99379941 11.625 72.875 C10.75101563 73.20242187 9.87703125 73.52984375 8.9765625 73.8671875 C1.18056467 77.26184121 -3.79098263 82.74057221 -8.25 89.875 C-17.30225904 114.01435743 -6.8566566 140.14195668 3.015625 162.37890625 C8.0422156 173.3076081 13.77427999 183.85410111 19.609375 194.3671875 C21.64494386 198.04928792 23.60861445 201.75753186 25.515625 205.5078125 C30.0282839 214.38158871 34.47146109 222.74415782 40.75 230.5 C42.61160888 232.85803791 44.13597265 235.26920213 45.625 237.875 C44.82835937 238.2153125 44.03171875 238.555625 43.2109375 238.90625 C35.18500902 242.57747763 30.06874828 246.03938574 26.61376953 254.28979492 C25.23602473 259.28539552 25.03220437 264.20481266 24.71875 269.36328125 C23.68671131 284.32737838 21.93907931 299.17626734 20.125 314.0625 C19.8133208 316.65944749 19.50212134 319.25645261 19.19140625 321.85351562 C10.4951633 394.29762897 10.4951633 394.29762897 -4.8125 406.8125 C-20.16204157 417.61878261 -40.63244175 422.44077607 -59.203125 419.4140625 C-68.64411998 416.60817238 -76.30787605 409.4693141 -80.97265625 400.9609375 C-88.054388 386.37987802 -89.42016535 371.84096735 -90.375 355.875 C-90.44314407 354.78504227 -90.44314407 354.78504227 -90.51266479 353.67306519 C-91.2813573 340.92465278 -91.42762431 328.21479924 -91.33203125 315.44921875 C-91.32172446 313.90119956 -91.31145038 312.35318015 -91.3012085 310.80516052 C-91.25655469 304.4367519 -91.20787464 298.06851809 -91.12817383 291.70043945 C-91.07940133 287.74465997 -91.0506062 283.78915012 -91.03442955 279.8331089 C-91.02463514 278.3480746 -91.00758608 276.86306722 -90.98264503 275.37821007 C-90.84128692 266.7992477 -91.29659205 259.59288332 -95.375 251.875 C-95.72226639 251.20252731 -96.06953278 250.53005463 -96.42732239 249.83720398 C-99.76950922 243.79875218 -106.15541584 241.19949105 -112.375 238.875 C-115.46956551 238.21436242 -118.19752424 237.98091586 -121.375 237.875 C-119.75329721 226.24347657 -114.95357849 215.49767149 -110.34863281 204.78735352 C-102.23423589 185.8951867 -97.95633716 168.53423339 -98.0625 147.8125 C-98.06399048 147.0905545 -98.06548096 146.36860901 -98.0670166 145.62478638 C-98.1106508 133.83166734 -98.87503504 122.42195857 -101.375 110.875 C-101.5301709 110.13459473 -101.6853418 109.39418945 -101.84521484 108.63134766 C-104.30792039 97.13119057 -107.30316797 86.94461059 -116.375 78.875 C-128.69306516 70.93758444 -141.80626237 70.49318407 -155.9375 73.0625 C-166.05709506 75.29259787 -175.18352248 79.19254919 -184.375 83.875 C-185.035 83.875 -185.695 83.875 -186.375 83.875 C-185.38551054 53.9924183 -176.1544406 23.38626816 -157.375 -0.125 C-156.45460937 -1.29289062 -156.45460937 -1.29289062 -155.515625 -2.484375 C-116.63345455 -49.07871149 -41.89184959 -32.98906933 0 0 Z " fill="#336791" transform="translate(353.375,64.125)"/>
<path d="M0 0 C1.12128799 0.00114807 1.12128799 0.00114807 2.26522827 0.00231934 C22.93541372 0.07776096 42.62533297 3.59175786 62.4375 9.5 C64.76927386 10.17226873 67.10321207 10.83648728 69.4375 11.5 C68.05041597 14.76559213 66.06055774 17.29390754 63.80786133 20.01416016 C43.86528805 44.17359038 35.31533989 73.9023753 31.4375 104.5 C31.17296021 106.16760376 31.17296021 106.16760376 30.90307617 107.86889648 C30.19734127 113.56860296 30.34330358 119.28492277 30.39290047 125.01859665 C30.41054823 127.1328985 30.42067309 129.247122 30.42881775 131.36148071 C30.45302458 137.36882941 30.48826911 143.37607366 30.53344727 149.38330078 C30.75297454 179.61828846 30.75297454 179.61828846 28.90698242 193.00488281 C26.09153589 213.96480617 29.99742207 234.70021231 42.8515625 251.84765625 C45.87360575 255.58337421 48.9962476 259.14559309 52.4375 262.5 C51.09750502 265.506818 49.63904709 267.49762609 47.25 269.75 C44.09295314 272.81591561 41.18383912 276.01094566 38.3125 279.34375 C36.26390906 281.69962958 34.16546998 284.0050746 32.0625 286.3125 C28.93327173 289.77530082 25.93249651 293.30679003 23 296.9375 C7.09633339 316.44304232 7.09633339 316.44304232 -3.5 318.125 C-8.80570212 317.82330321 -12.56056588 314.74520476 -16.5625 311.5 C-17.14773437 311.02820313 -17.73296875 310.55640625 -18.3359375 310.0703125 C-36.52440312 293.58968403 -45.58802356 265.86925899 -53.52441406 243.43212891 C-54.54976609 240.53596762 -55.59747118 237.64866897 -56.6484375 234.76171875 C-69.83473691 198.17075754 -78.19607032 159.81622737 -84.5625 121.5 C-84.75755127 120.40606934 -84.95260254 119.31213867 -85.15356445 118.18505859 C-86.51740811 110.17406754 -86.91184681 102.37038735 -86.875 94.25 C-86.87081055 92.97946777 -86.86662109 91.70893555 -86.86230469 90.39990234 C-86.7468778 80.76912531 -85.84551824 71.83872548 -83.5625 62.5 C-83.2840625 61.22511719 -83.005625 59.95023438 -82.71875 58.63671875 C-79.52261219 45.14956826 -73.87239241 33.85468995 -64.5625 23.5 C-64.03269531 22.87738281 -63.50289062 22.25476563 -62.95703125 21.61328125 C-47.10429031 4.1948375 -22.40112103 -0.13388557 0 0 Z " fill="#336791" transform="translate(122.5625,34.5)"/>
<path d="M0 0 C0.85006622 0.00021149 1.70013245 0.00042297 2.57595825 0.00064087 C27.04801105 0.06115633 49.66243519 4.17106005 72 14.375 C73.10859375 14.87644531 74.2171875 15.37789062 75.359375 15.89453125 C90.60665472 23.12851841 103.24491117 33.31056673 115 45.375 C115.59167969 45.9215625 116.18335938 46.468125 116.79296875 47.03125 C132.0806201 61.46137352 137.08360043 78.92482008 138 99.375 C139.3355016 166.76441085 109.98789404 236.08798758 77 293.375 C80.54186997 292.89732837 84.08345785 292.41759556 87.625 291.9375 C88.62402344 291.80279297 89.62304688 291.66808594 90.65234375 291.52929688 C96.49932211 290.73559388 96.49932211 290.73559388 102.32421875 289.796875 C113.07476375 288.10189856 122.69990975 289.3536658 131.9375 295.25 C137.4942987 300.97518654 140.04118919 306.71368388 140.375 314.625 C140.08984007 325.7312289 134.59635536 333.59587519 127 341.375 C114.63155536 352.30734077 99.86735257 360.0397514 84 364.375 C82.93007813 364.67019531 81.86015625 364.96539062 80.7578125 365.26953125 C73.32170362 367.07951938 65.85960016 367.91417982 58.25 368.625 C57.29158203 368.71740967 56.33316406 368.80981934 55.34570312 368.9050293 C49.09708259 369.42520863 43.21151742 369.2246408 37 368.375 C36.95512451 369.27927734 36.91024902 370.18355469 36.86401367 371.11523438 C32.34546557 459.93312128 32.34546557 459.93312128 4 488.375 C3.32453125 489.07367188 2.6490625 489.77234375 1.953125 490.4921875 C-8.04653269 500.1535109 -20.87361849 505.35341525 -34.11376953 508.87109375 C-35.84295138 509.33304448 -37.56093445 509.8363966 -39.27734375 510.34375 C-56.77323492 514.92449242 -76.39808838 514.48892937 -92.3125 505.5625 C-93.89442607 504.52914507 -95.45830865 503.46747439 -97 502.375 C-97.68578125 501.89675781 -98.3715625 501.41851562 -99.078125 500.92578125 C-117.22849873 486.74133563 -123.61330827 458.67939988 -126.28988647 437.00350952 C-127.18941409 429.32576722 -127.62307961 421.62737723 -128.00537109 413.90917969 C-128.12595663 411.48073463 -128.25567833 409.0529013 -128.38671875 406.625 C-128.79517241 398.86675177 -129.10990499 391.146853 -129 383.375 C-129.78761719 383.64054687 -130.57523438 383.90609375 -131.38671875 384.1796875 C-154.23644888 391.5889491 -179.9960038 392.03122102 -202 381.375 C-204.78203354 379.85040877 -207.40063106 378.19043228 -210 376.375 C-211.1657805 375.60282711 -212.33237748 374.83188468 -213.5 374.0625 C-214.7375 373.2271875 -214.7375 373.2271875 -216 372.375 C-216.6290625 372.77332031 -217.258125 373.17164063 -217.90625 373.58203125 C-229.99772258 381.06636141 -241.03953856 384.26561573 -255.3515625 381.796875 C-277.51913666 375.86394761 -290.85190347 356.80071434 -301.82202148 338.00366211 C-331.07387679 286.33363625 -344.41423309 224.04239456 -354.6875 166.1328125 C-354.80684402 165.46362289 -354.92618805 164.79443329 -355.04914856 164.10496521 C-356.38527304 156.44014154 -357.16166235 149.05822575 -357.203125 141.29296875 C-357.20882507 140.43931229 -357.21452515 139.58565582 -357.22039795 138.70613098 C-357.22979683 136.90346493 -357.23636145 135.1007821 -357.24023438 133.2980957 C-357.2498379 130.60790853 -357.28086742 127.91852079 -357.3125 125.22851562 C-357.406156 110.02726546 -355.94384986 94.96434847 -351.4375 80.375 C-351.18919434 79.56305176 -350.94088867 78.75110352 -350.68505859 77.91455078 C-346.31562915 64.45317725 -339.45065306 51.92138095 -330 41.375 C-329.22785156 40.40820312 -328.45570313 39.44140625 -327.66015625 38.4453125 C-311.18972176 18.66896203 -283.33917385 9.45032011 -258.5859375 7.04296875 C-229.41112985 4.65940603 -201.03732279 9.40645124 -172.94140625 17.0078125 C-172.08764404 17.23621826 -171.23388184 17.46462402 -170.35424805 17.69995117 C-168 18.375 -168 18.375 -166.01489258 19.10668945 C-162.66732786 20.31413636 -161.21105948 20.4519137 -157.81640625 19.21484375 C-156.74261719 18.58707031 -155.66882813 17.95929687 -154.5625 17.3125 C-128.67429432 3.18153535 -97.79486334 3.45206594 -69.2421875 6.9375 C-60.08323643 7.95493192 -52.6973076 6.56295734 -43.8359375 4.328125 C-29.28885135 0.80532636 -14.89943616 -0.03444177 0 0 Z M-55.94140625 21.6171875 C-62.53124888 23.2499199 -68.08033621 22.51461871 -74.57861328 20.90820312 C-100.27217545 15.25033463 -128.82670079 19.15982931 -152 31.375 C-153.05058594 32.11621094 -154.10117188 32.85742188 -155.18359375 33.62109375 C-158 35.375 -158 35.375 -160.09765625 35.46875 C-160.74605469 35.2728125 -161.39445313 35.076875 -162.0625 34.875 C-162.83464844 34.65585937 -163.60679687 34.43671875 -164.40234375 34.2109375 C-165.25957031 33.93507813 -166.11679688 33.65921875 -167 33.375 C-167.97066406 33.07851563 -168.94132813 32.78203125 -169.94140625 32.4765625 C-172.13775155 31.80283695 -174.33300141 31.12553343 -176.52734375 30.4453125 C-177.67332031 30.09210937 -178.81929687 29.73890625 -180 29.375 C-181.07378906 29.04242188 -182.14757812 28.70984375 -183.25390625 28.3671875 C-195.60563735 24.79797283 -208.28946903 23.15020765 -221 21.375 C-222.05223755 21.21378662 -222.05223755 21.21378662 -223.12573242 21.04931641 C-239.20879581 18.72521048 -256.23428691 19.56948305 -272 23.375 C-273.77310547 23.77525391 -273.77310547 23.77525391 -275.58203125 24.18359375 C-291.60812829 28.23058795 -305.73322297 36.21874057 -317 48.375 C-317.59167969 48.973125 -318.18335938 49.57125 -318.79296875 50.1875 C-340.87716924 73.42503398 -344.16247696 107.43587055 -343.5078125 138.015625 C-342.70130858 163.74632189 -336.14279251 189.67956999 -329.72851562 214.49853516 C-328.9222515 217.68198153 -328.20168282 220.87751507 -327.4987793 224.08496094 C-325.02178103 235.31254122 -321.45764071 246.23019815 -317.99926758 257.18579102 C-316.98454351 260.42433011 -315.9974491 263.67050127 -315.01171875 266.91796875 C-305.0926085 299.17802678 -290.5827937 346.23565105 -259.1875 364.0625 C-250.99344181 367.72910191 -242.23647201 367.79736126 -233.75 364.9375 C-222.17496393 359.53834242 -213.58112413 347.8532817 -205.75 338.125 C-201.10090472 332.3748032 -196.08852404 327.01268261 -191.03125 321.625 C-188.06342417 318.45931911 -185.1888127 315.22255059 -182.3671875 311.92578125 C-180.97065031 310.34170906 -179.50845676 308.85221653 -178 307.375 C-177.46632812 307.55675781 -176.93265625 307.73851562 -176.3828125 307.92578125 C-174.8003642 308.45965222 -173.2155019 308.98639609 -171.62890625 309.5078125 C-169.92320391 310.07046617 -168.22223812 310.64776957 -166.52734375 311.2421875 C-160.54836127 313.23202319 -155.28420653 313.73600761 -149 313.375 C-150.36745066 315.11014295 -151.7443571 316.83783552 -153.125 318.5625 C-153.89070312 319.52542969 -154.65640625 320.48835938 -155.4453125 321.48046875 C-161.26337106 328.07248923 -165.7794635 330.34556658 -174.1875 332.5 C-175.12424561 332.75515381 -176.06099121 333.01030762 -177.02612305 333.27319336 C-180.85306594 334.3109802 -184.68881595 335.29840613 -188.5390625 336.24609375 C-195.92352056 338.08700794 -202.83953798 340.60961962 -207 347.375 C-207.88676062 351.47884567 -207.85901053 355.52287181 -206.07421875 359.37109375 C-199.95570621 367.47496434 -188.90473666 371.13680061 -179.28515625 372.89453125 C-155.09627959 375.99566928 -136.45872068 371.97540956 -117 357.375 C-117.00444122 357.9915596 -117.00888245 358.6081192 -117.01345825 359.24336243 C-117.67157664 398.87672281 -117.67157664 398.87672281 -115 438.375 C-114.90879883 439.21659668 -114.81759766 440.05819336 -114.72363281 440.92529297 C-113.04226524 455.88946435 -108.19393282 469.28184404 -99 481.375 C-98.29875 482.385625 -97.5975 483.39625 -96.875 484.4375 C-90.3123399 492.01631392 -80.21740702 497.5498411 -70.26025391 498.68823242 C-67.22837617 498.85055433 -64.22365395 498.89383616 -61.1875 498.875 C-60.09381104 498.86855469 -59.00012207 498.86210937 -57.87329102 498.85546875 C-38.66365072 498.43085371 -16.93942926 492.39806583 -3 478.375 C11.36528997 461.62423305 14.49581039 441.17735957 17.5 420.0625 C17.80319265 417.97424403 18.10666229 415.88602826 18.41040039 413.79785156 C20.19763425 401.42176459 21.89706917 389.03429049 23.4375 376.625 C23.68306641 374.67726685 23.68306641 374.67726685 23.93359375 372.69018555 C24.78409737 365.54680946 25.20739092 358.56823868 25 351.375 C25.88486084 351.58503662 25.88486084 351.58503662 26.78759766 351.79931641 C33.36734094 353.25192028 39.64527249 353.76103596 46.375 353.75 C47.41430664 353.74838867 48.45361328 353.74677734 49.52441406 353.74511719 C59.66991404 353.58731893 69.20900743 351.95097173 79 349.375 C80.67255859 348.941875 80.67255859 348.941875 82.37890625 348.5 C98.51046106 343.68845769 115.82630761 333.63005784 124.5 318.8125 C125.21949553 315.30495929 124.92665866 312.83452567 124 309.375 C120.26747359 304.94387785 120.26747359 304.94387785 114.98828125 303.13671875 C107.71369995 302.93494204 101.064851 304.01281607 93.9375 305.375 C80.5184518 307.88547754 65.93893553 309.96302357 53 304.375 C54.31023785 300.8890248 55.8435604 297.77305389 57.765625 294.5859375 C58.31863281 293.65910156 58.87164062 292.73226563 59.44140625 291.77734375 C60.03824219 290.77832031 60.63507813 289.77929688 61.25 288.75 C95.0900652 231.22889538 134.33323805 149.7292469 120.796875 81.1328125 C114.52480599 59.42653445 93.99003844 42.84232847 74.95654297 32.23632812 C70.37624048 29.7932098 65.71021313 27.55467258 61 25.375 C59.98421875 24.89160156 58.9684375 24.40820312 57.921875 23.91015625 C49.59530791 20.16775109 40.9208311 18.13960134 32 16.375 C31.16629883 16.19549805 30.33259766 16.01599609 29.47363281 15.83105469 C19.9344082 13.97241873 10.43086847 13.97969593 0.75 14 C-0.13340057 13.99987915 -1.01680115 13.9997583 -1.92697144 13.99963379 C-20.63444256 14.03603253 -37.95528762 16.52412827 -55.94140625 21.6171875 Z " fill="#020202" transform="translate(365,-0.375)"/>
<path d="M0 0 C12.10146861 10.40560113 22.92316085 20.3715415 25.203125 36.80078125 C25.43711729 40.4114215 25.43946584 43.99648838 25.390625 47.61328125 C25.3896582 48.95616211 25.3896582 48.95616211 25.38867188 50.32617188 C25.31346888 62.06619438 24.13336614 73.45737858 21.953125 84.98828125 C21.66501953 86.60573242 21.66501953 86.60573242 21.37109375 88.25585938 C18.44108066 104.00237626 13.59263989 119.25941061 8.515625 134.42578125 C8.25612061 135.20281403 7.99661621 135.9798468 7.72924805 136.78042603 C-3.66871587 170.77772634 -18.57995395 205.04489041 -38.796875 234.80078125 C-39.786875 234.47078125 -40.776875 234.14078125 -41.796875 233.80078125 C-41.19283734 230.05574776 -40.09449165 227.07169991 -38.421875 223.67578125 C-29.66369663 204.86847914 -30.83078114 184.41232456 -33.296875 164.30078125 C-35.27153639 147.79520022 -35.44500384 132.80014196 -32.796875 116.36328125 C-29.84091769 97.91555648 -28.49689243 81.90085106 -36.796875 64.80078125 C-37.40673494 63.47548346 -38.01610309 62.14995927 -38.625 60.82421875 C-48.98761587 38.81067624 -63.7757995 17.18788191 -82.796875 1.80078125 C-83.74175781 1.02992187 -84.68664062 0.2590625 -85.66015625 -0.53515625 C-95.88731995 -8.72007077 -106.92779123 -15.62801617 -118.796875 -21.19921875 C-118.466875 -21.85921875 -118.136875 -22.51921875 -117.796875 -23.19921875 C-77.98838278 -32.61163882 -32.26441572 -26.06283832 0 0 Z " fill="#346791" transform="translate(447.796875,54.19921875)"/>
<path d="M0 0 C7.5997243 8.0727995 9.21620418 18.42950283 10.65283203 28.99072266 C10.91758674 30.86964127 11.23876821 32.74039572 11.56640625 34.609375 C16.10261771 62.29590703 11.66237429 87.5369312 0.5078125 113.00390625 C-6.50734334 128.6277551 -6.50734334 128.6277551 -11.0546875 145.06640625 C-24.65357238 144.82513571 -34.90089018 141.15538587 -45.0546875 132.06640625 C-45.74304688 131.47085938 -46.43140625 130.8753125 -47.140625 130.26171875 C-56.51026431 121.61005946 -63.39042392 109.23817424 -64.22949219 96.38964844 C-64.54195537 87.02503407 -64.27473166 77.71215842 -63.53125 68.375 C-63.04732687 61.60094104 -63.03449964 54.88306073 -63.08984375 48.09375 C-63.0967809 44.83894431 -63.09962955 41.5841581 -63.10131836 38.3293457 C-63.11197532 36.09613869 -63.13890182 33.86295506 -63.18139648 31.63012695 C-63.23870537 28.36637399 -63.23259428 25.10784739 -63.21484375 21.84375 C-63.24771988 20.84995834 -63.28059601 19.85616669 -63.31446838 18.83226013 C-63.2644321 15.92404445 -63.11760189 13.77852284 -62.0546875 11.06640625 C-59.01255162 8.36870039 -55.74715398 6.71809038 -52.0546875 5.06640625 C-50.93320313 4.47472656 -49.81171875 3.88304687 -48.65625 3.2734375 C-35.15076735 -3.05393429 -13.47985954 -10.12163669 0 0 Z " fill="#346891" transform="translate(229.0546875,153.93359375)"/>
<path d="M0 0 C0.78955078 -0.00386719 1.57910156 -0.00773438 2.39257812 -0.01171875 C3.16150391 -0.01042969 3.93042969 -0.00914062 4.72265625 -0.0078125 C5.41238525 -0.00668457 6.10211426 -0.00555664 6.81274414 -0.00439453 C9.25306057 0.14421718 11.55219953 0.60060363 13.9375 1.125 C14.13426197 8.65205645 13.5510673 15.75302274 12.4375 23.1875 C9.93284479 41.76005656 10.37710256 59.79125481 12.85864258 78.33447266 C15.03907322 94.86665362 14.97303094 110.68781561 7.9375 126.125 C4.84936476 123.51124698 3.38473949 120.27066291 1.6875 116.6875 C-0.93272242 111.27603235 -3.67667843 105.95463756 -6.5703125 100.68359375 C-16.36778851 82.82977455 -25.56163531 64.83965244 -31.0625 45.125 C-31.37574219 44.00351563 -31.68898438 42.88203125 -32.01171875 41.7265625 C-34.52160344 31.60734484 -35.84673715 22.06584998 -31.38671875 12.31640625 C-27.64131399 6.11825855 -21.9446459 2.91307155 -15.0625 1.125 C-10.01148163 0.05736492 -5.13597001 -0.02527959 0 0 Z " fill="#356992" transform="translate(389.0625,146.875)"/>
<path d="M0 0 C4.39677591 3.12847517 7.22099695 5.71797076 8.4765625 11.0078125 C8.82703875 16.00671062 7.79769987 18.96526671 4.8125 23 C-4.29654958 33.33217284 -16.30409707 40.1850828 -30 42 C-42.12425225 42.64596426 -55.51421387 42.93226972 -66 36 C-65.67 35.34 -65.34 34.68 -65 34 C-62.78198242 33.31738281 -62.78198242 33.31738281 -59.85546875 32.703125 C-58.79110596 32.46972412 -57.72674316 32.23632324 -56.63012695 31.99584961 C-54.92602661 31.62665405 -54.92602661 31.62665405 -53.1875 31.25 C-37.13384291 27.58534461 -26.31284844 22.778823 -15.9609375 9.51171875 C-7.05258996 -1.89877422 -7.05258996 -1.89877422 0 0 Z " fill="#366993" transform="translate(240,317)"/>
<path d="M0 0 C7.52525966 3.25848662 14.804031 3.38465374 22.890625 3.34765625 C24.61079834 3.3468103 24.61079834 3.3468103 26.36572266 3.34594727 C34.32347454 3.26028974 41.68815773 2.4549155 49.4140625 0.59375 C52.24445439 0.06258722 53.73076017 0.04589618 56.390625 1.03515625 C37.53367069 16.12856043 14.55980726 22.59347268 -9.609375 21.03515625 C-19.10188748 19.78890001 -19.10188748 19.78890001 -22.609375 18.03515625 C-23.07454855 10.88957367 -23.33079536 5.67782936 -18.609375 0.03515625 C-11.20720776 -4.65061935 -7.35575677 -4.06421015 0 0 Z " fill="#376A93" transform="translate(414.609375,317.96484375)"/>
<path d="M0 0 C4.49395599 1.00017923 7.35984392 2.03976588 10 6 C10 9.73827312 9.03710375 10.95918588 6.5 13.75 C2.65142194 16.64103711 -1.2279548 17.54814033 -6 17 C-10.23180934 15.3249088 -13.17963777 12.99437846 -16.0625 9.5 C-17.19591602 6.47755729 -17.13793022 5.00738701 -16 2 C-11.11339952 -1.25773365 -5.71676649 -0.44493701 0 0 Z " fill="#F8FAFB" transform="translate(220,158)"/>
<path d="M0 0 C0.82757813 0.48339844 0.82757813 0.48339844 1.671875 0.9765625 C1.49887367 5.38809648 1.1086678 7.47425078 -1.828125 10.8515625 C-5.63811723 13.60831169 -9.67359261 14.42619533 -14.328125 13.9765625 C-17.57298728 12.26563512 -19.75381707 10.55087043 -22.328125 7.9765625 C-22.453125 5.6015625 -22.453125 5.6015625 -21.328125 2.9765625 C-15.63044815 -1.73614362 -6.77066036 -2.97636412 0 0 Z " fill="#F8F9FB" transform="translate(388.328125,155.0234375)"/>
</svg>
